#!OML:ASF I:\Random Stuff\random\construction\7_22_03\Session 2\subj1.ASF
:FULLY-SPECIFIED
:DEGREES
1049
root 6.12438 17.6048 -13.5894 4.68262 11.958 -3.89429
lowerback 2.67015 1.32629 3.51797
upperback -1.98854 1.94985 0.840687
thorax -3.45897 0.897213 -1.21278
lowerneck -21.4446 4.04801 4.99041
upperneck 24.0298 4.98008 -3.3131
head 11.6221 2.2874 -1.24722
rclavicle -3.34005e-014 6.16232e-015
rhumerus -43.3302 2.41466 -76.4724
rradius 62.4392
rwrist 30.3017
rhand -21.2566 -333.521
rfingers 7.12502
rthumb 5.12657 -3.439
lclavicle -3.34005e-014 6.16232e-015
lhumerus -34.1452 -11.0694 91.3222
lradius 30.8108
lwrist 33.4323
lhand -25.3198 58.7049
lfingers 7.12502
lthumb 1.2027 -271.319
rfemur 2.57582 -25.3087 18.9174
rtibia -1.43125e-014
rfoot -6.52886 2.24591
rtoes 16.0668
lfemur -16.0079 -10.8328 -13.764
ltibia 24.5577
lfoot -15.5105 -0.236437
ltoes -24.5621
1050
root 6.16062 17.6094 -13.6088 4.74482 11.6955 -3.92088
lowerback 2.66202 1.4181 3.36486
upperback -1.95725 2.06294 0.792048
thorax -3.41989 0.957564 -1.18257
lowerneck -21.4424 4.05242 5.05474
upperneck 23.7803 4.95073 -3.30455
head 11.5268 2.28119 -1.25935
rclavicle -2.28633e-014 4.87022e-015
rhumerus -43.0013 1.81008 -76.6308
rradius 60.284
rwrist 33.8225
rhand -19.4626 -334.348
rfingers 7.12502
rthumb 6.85865 -4.21684
lclavicle -2.28633e-014 4.87022e-015
lhumerus -33.733 -11.2527 91.1443
lradius 30.619
lwrist 33.1614
lhand -25.2249 58.7743
lfingers 7.12502
lthumb 1.29437 -271.25
rfemur 2.33515 -25.0498 18.932
rtibia 7.15625e-015
rfoot -6.46695 3.50185
rtoes 13.8253
lfemur -16.043 -10.6008 -13.8833
ltibia 24.5153
lfoot -15.4058 -0.1349
ltoes -24.3252
1051
root 6.19204 17.611 -13.6246 4.76075 11.4695 -3.86658
lowerback 2.65451 1.47265 3.13925
upperback -1.90333 2.12243 0.733503
thorax -3.36248 0.993236 -1.11882
lowerneck -21.4781 4.07432 5.05005
upperneck 23.65 4.93742 -3.17097
head 11.4794 2.29151 -1.21082
rclavicle 4.72114e-015 -8.15017e-015
rhumerus -42.4516 1.0524 -76.7014
rradius 57.6289
rwrist 37.1009
rhand -17.9925 -334.787
rfingers 7.12502
rthumb 8.27756 -4.60515
lclavicle 4.72114e-015 -8.15017e-015
lhumerus -33.3883 -11.2688 90.9035
lradius 30.5656
lwrist 32.9435
lhand -25.3365 58.8347
lfingers 7.12502
lthumb 1.18658 -271.189
rfemur 2.18473 -24.8339 18.8708
rtibia 3.18055e-015
rfoot -6.55679 4.80143
rtoes 11.4111
lfemur -16.0156 -10.2875 -14.0897
ltibia 24.497
lfoot -15.3651 -0.218478
ltoes -23.9985
1052
root 6.21869 17.6112 -13.6349 4.72791 11.2751 -3.82515
lowerback 2.56992 1.51117 2.98801
upperback -1.78832 2.15819 0.64197
thorax -3.19589 1.017 -1.12571
lowerneck -21.5595 4.08785 5.05774
upperneck 23.5326 4.88851 -2.97595
head 11.4428 2.29421 -1.14703
rclavicle 1.98288e-014 4.87022e-015
rhumerus -41.3752 -0.321148 -76.6409
rradius 54.0731
rwrist 40.3183
rhand -16.85 -334.401
rfingers 7.12502
rthumb 9.38005 -4.1722
lclavicle 1.98288e-014 4.87022e-015
lhumerus -33.029 -11.275 90.5818
lradius 30.6339
lwrist 32.6984
lhand -25.4894 58.8661
lfingers 7.12502
lthumb 1.03891 -271.157
rfemur 2.16864 -24.6436 18.7803
rtibia -2.22639e-014
rfoot -6.62068 5.85267
rtoes 11.7868
lfemur -15.9393 -10.2662 -14.2569
ltibia 24.531
lfoot -15.3681 -0.0351914
ltoes -23.9745
1053
root 6.2419 17.6101 -13.6415 4.68607 11.135 -3.86074
lowerback 2.50315 1.55505 2.91565
upperback -1.71011 2.20762 0.586233
thorax -3.07575 1.04507 -1.14147
lowerneck -21.5768 4.07215 5.04137
upperneck 23.3968 4.81603 -2.80124
head 11.386 2.2823 -1.09175
rclavicle -6.76862e-014 -1.0138e-014
rhumerus -41.1521 -1.22582 -76.6933
rradius 52.077
rwrist 42.5972
rhand -15.295 -334.427
rfingers 7.12502
rthumb 10.8802 -4.12562
lclavicle -6.76862e-014 -1.0138e-014
lhumerus -32.7508 -11.4235 90.3769
lradius 30.8244
lwrist 32.523
lhand -25.3885 59.0129
lfingers 7.12502
lthumb 1.13633 -271.01
rfemur 2.22353 -24.4964 18.732
rtibia 6.36111e-015
rfoot -6.41061 6.59736
rtoes 14.8189
lfemur -15.8885 -10.4249 -14.3177
ltibia 24.593
lfoot -15.4062 0.302924
ltoes -24.346
